# xmcd
#
# Track frame offsets:
#	183
#	9003
#	32443
#	56330
#	79263
#	102760
#	124490
#	146758
#	173573
#	191230
#	208985
#	230853
#	248883
#
# Disc length: 3699 seconds
#
# Revision: 11
# Processed by: cddbd v1.5.2PL0 Copyright (c) Steve Scherf et al.
# Submitted via: audiograbber 1.83.01
#
DISCID=b20e710d
DTITLE=Rainhard Fendrich and Wiener Symphonieorchester, Ltg. Christian Kollonovit
DTITLE=s - Livemitschnitt Festwocheneröffnung Wiener Rathausplatz
DYEAR=1992
DGENRE=AurtroPop
TTITLE0=Intro (Live 08.05.1992 von der Festwocheneröffnung auf dem Wiener Ratha
TTITLE0=usplatz)
TTITLE1=Wie Tag und Nacht (Live 08.05.1992 von der Festwocheneröffnung auf dem 
TTITLE1=Wiener Rathausplatz)
TTITLE2=Von Zeit zu Zeit (Live 08.05.1992 von der Festwocheneröffnung auf dem W
TTITLE2=iener Rathausplatz)
TTITLE3=In der Szene (Live 08.05.1992 von der Festwocheneröffnung auf dem Wiene
TTITLE3=r Rathausplatz)
TTITLE4=Es lebe der Sport (Live 08.05.1992 von der Festwocheneröffnung auf dem 
TTITLE4=Wiener Rathausplatz)
TTITLE5=Rattenfänger (Live 08.05.1992 von der Festwocheneröffnung auf dem Wiene
TTITLE5=r Rathausplatz)
TTITLE6=Tango Korrupti (Live 08.05.1992 von der Festwocheneröffnung auf dem Wie
TTITLE6=ner Rathausplatz)
TTITLE7=Löwin und Lamm (Live 08.05.1992 von der Festwocheneröffnung auf dem Wie
TTITLE7=ner Rathausplatz)
TTITLE8=Schickeria (Live 08.05.1992 von der Festwocheneröffnung auf dem Wiener 
TTITLE8=Rathausplatz)
TTITLE9=Macho Macho (Live 08.05.1992 von der Festwocheneröffnung auf dem Wiener
TTITLE9=Rathausplatz)
TTITLE10=Papa (Live 08.05.1992 von der Festwocheneröffnung auf dem Wiener Ratha
TTITLE10=usplatz)
TTITLE11=Weus'd a Herz hast wie a Bergwerk (Live 08.05.1992 von der Festwochene
TTITLE11=röffnung auf dem Wiener Rathausplatz)
TTITLE12=I Am From Austria (Live 08.05.1992 von der Festwocheneröffnung auf dem
TTITLE12=Wiener Rathausplatz)
EXTD=YEAR: 1992
EXTT0=
EXTT1=
EXTT2=
EXTT3=
EXTT4=
EXTT5=
EXTT6=
EXTT7=
EXTT8=
EXTT9=
EXTT10=
EXTT11=
EXTT12=
PLAYORDER=
